ffmpeg started on 2026-03-22 at 16:47:00
Report written to "D:\Convert\FFMetrics\reports\ssim_report-6.txt"
Log level: 32
Command line:
ffmpeg -hide_banner -nostdin -r 24000/1001 -i "F:\\Convert\\files\\[DC] Make Heroine ga Oosugiru - 07_Telegram_HEVC(224).mkv" -r 24000/1001 -i "F:\\Convert\\files\\[DC] Make Heroine ga Oosugiru - 07_Telegram.mp4" -lavfi "[0:v]settb=AVTB,setpts=PTS-STARTPTS,format=pix_fmts=yuv420p10le,fps=24000/1001,scale=1920:1080:flags=lanczos:param0=3:out_range=limited:out_color_matrix=bt709:out_chroma_loc=left,setsar=1/1,setdar=(1920/1080)*(1/1),colorspace=format=yuv420p10:range=tv:primaries=bt709:trc=bt709:space=bt709:fast=0[main];[1:v]settb=AVTB,setpts=PTS-STARTPTS,format=pix_fmts=yuv420p,fps=24000/1001,scale=1920:1080:flags=lanczos:param0=3:out_range=limited:out_color_matrix=bt709:out_chroma_loc=left,setsar=1.000,setdar=1.778,colorspace=format=yuv420p:range=tv:primaries=bt709:trc=bt709:space=bt709:fast=0[ref];[main][ref]ssim=eof_action=endall:stats_file='D\\:/Convert/FFMetrics/logs/ssim_logfile-6.txt'" -f null -
Input #0, matroska,webm, from 'F:\Convert\files\[DC] Make Heroine ga Oosugiru - 07_Telegram_HEVC(224).mkv':
  Metadata:
    COMPATIBLE_BRANDS: isomiso2avc1mp41
    MAJOR_BRAND     : isom
    MINOR_VERSION   : 512
    ENCODER         : Lavf61.7.100
  Duration: 00:24:06.79, start: -0.021000, bitrate: 861 kb/s
  Stream #0:0: Video: hevc (Main 10), yuv420p10le(tv, bt709, progressive), 1920x1080 [SAR 1:1 DAR 16:9], 23.98 fps, 23.98 tbr, 1k tbn (default)
      Metadata:
        HANDLER_NAME    : VideoHandler
        VENDOR_ID       : [0][0][0][0]
        ENCODER         : Lavc61.19.100 libx265
        BPS             : 664865
        DURATION        : 00:24:06.569708333
        NUMBER_OF_FRAMES: 34683
        NUMBER_OF_BYTES : 120221692
        _STATISTICS_WRITING_APP: mkvpropedit v94.0 ('Initiate') 64-bit
        _STATISTICS_WRITING_DATE_UTC: 2026-03-21 11:59:10
        _STATISTICS_TAGS: BPS DURATION NUMBER_OF_FRAMES NUMBER_OF_BYTES
  Stream #0:1: Audio: aac (LC), 48000 Hz, stereo, fltp (default)
      Metadata:
        HANDLER_NAME    : SoundHandler
        VENDOR_ID       : [0][0][0][0]
        ENCODER         : Lavc61.19.100 aac
        BPS             : 193194
        DURATION        : 00:24:06.784000000
        NUMBER_OF_FRAMES: 67819
        NUMBER_OF_BYTES : 34938755
        _STATISTICS_WRITING_APP: mkvpropedit v94.0 ('Initiate') 64-bit
        _STATISTICS_WRITING_DATE_UTC: 2026-03-21 11:59:10
        _STATISTICS_TAGS: BPS DURATION NUMBER_OF_FRAMES NUMBER_OF_BYTES
Input #1, mov,mp4,m4a,3gp,3g2,mj2, from 'F:\Convert\files\[DC] Make Heroine ga Oosugiru - 07_Telegram.mp4':
  Metadata:
    major_brand     : isom
    minor_version   : 512
    compatible_brands: isomiso2avc1mp41
    encoder         : Lavf60.16.100
  Duration: 00:24:06.74, start: 0.000000, bitrate: 3764 kb/s
  Stream #1:0[0x1](und): Video: h264 (High) (avc1 / 0x31637661), yuv420p(tv, bt709, progressive), 1920x1080 [SAR 1:1 DAR 16:9], 3616 kb/s, 23.98 fps, 23.98 tbr, 24k tbn (default)
      Metadata:
        handler_name    : VideoHandler
        vendor_id       : [0][0][0][0]
        encoder         : Lavc60.31.102 h264_qsv
  Stream #1:1[0x2](und): Audio: aac (HE-AACv2) (mp4a / 0x6134706D), 48000 Hz, stereo, fltp, 144 kb/s (default)
      Metadata:
        handler_name    : SoundHandler
        vendor_id       : [0][0][0][0]
Stream mapping:
  Stream #0:0 (hevc) -> settb:default
  Stream #1:0 (h264) -> settb:default
  ssim:default -> Stream #0:0 (wrapped_avframe)
  Stream #0:1 -> #0:1 (aac (native) -> pcm_s16le (native))
Output #0, null, to 'pipe:':
  Metadata:
    COMPATIBLE_BRANDS: isomiso2avc1mp41
    MAJOR_BRAND     : isom
    MINOR_VERSION   : 512
    encoder         : Lavf61.7.100
  Stream #0:0: Video: wrapped_avframe, yuv420p10le(tv, bt709, progressive), 1920x1080 [SAR 1:1 DAR 16:9], q=2-31, 200 kb/s, 23.98 fps, 23.98 tbn
      Metadata:
        encoder         : Lavc61.19.100 wrapped_avframe
  Stream #0:1: Audio: pcm_s16le, 48000 Hz, stereo, s16, 1536 kb/s (default)
      Metadata:
        HANDLER_NAME    : SoundHandler
        VENDOR_ID       : [0][0][0][0]
        _STATISTICS_TAGS: BPS DURATION NUMBER_OF_FRAMES NUMBER_OF_BYTES
        BPS             : 193194
        DURATION        : 00:24:06.784000000
        NUMBER_OF_FRAMES: 67819
        NUMBER_OF_BYTES : 34938755
        _STATISTICS_WRITING_APP: mkvpropedit v94.0 ('Initiate') 64-bit
        _STATISTICS_WRITING_DATE_UTC: 2026-03-21 11:59:10
        encoder         : Lavc61.19.100 pcm_s16le
frame=  127 fps=0.0 q=-0.0 size=N/A time=00:00:05.29 bitrate=N/A speed=10.1x    frame=  312 fps=300 q=-0.0 size=N/A time=00:00:13.01 bitrate=N/A speed=12.5x    frame=  499 fps=322 q=-0.0 size=N/A time=00:00:20.81 bitrate=N/A speed=13.4x    frame=  694 fps=335 q=-0.0 size=N/A time=00:00:28.94 bitrate=N/A speed=  14x    frame=  877 fps=339 q=-0.0 size=N/A time=00:00:36.57 bitrate=N/A speed=14.2x    frame= 1018 fps=329 q=-0.0 size=N/A time=00:00:42.45 bitrate=N/A speed=13.7x    frame= 1190 fps=330 q=-0.0 size=N/A time=00:00:49.63 bitrate=N/A speed=13.8x    frame= 1368 fps=331 q=-0.0 size=N/A time=00:00:57.05 bitrate=N/A speed=13.8x    frame= 1539 fps=331 q=-0.0 size=N/A time=00:01:04.18 bitrate=N/A speed=13.8x    frame= 1693 fps=328 q=-0.0 size=N/A time=00:01:10.61 bitrate=N/A speed=13.7x    frame= 1866 fps=329 q=-0.0 size=N/A time=00:01:17.82 bitrate=N/A speed=13.7x    frame= 2042 fps=329 q=-0.0 size=N/A time=00:01:25.16 bitrate=N/A speed=13.7x    frame= 2167 fps=323 q=-0.0 size=N/A time=00:01:30.38 bitrate=N/A speed=13.5x    frame= 2330 fps=323 q=-0.0 size=N/A time=00:01:37.18 bitrate=N/A speed=13.5x    frame= 2476 fps=320 q=-0.0 size=N/A time=00:01:43.26 bitrate=N/A speed=13.4x    frame= 2633 fps=319 q=-0.0 size=N/A time=00:01:49.81 bitrate=N/A speed=13.3x    frame= 2814 fps=321 q=-0.0 size=N/A time=00:01:57.36 bitrate=N/A speed=13.4x    frame= 2990 fps=322 q=-0.0 size=N/A time=00:02:04.70 bitrate=N/A speed=13.4x    frame= 3176 fps=324 q=-0.0 size=N/A time=00:02:12.46 bitrate=N/A speed=13.5x    frame= 3373 fps=327 q=-0.0 size=N/A time=00:02:20.68 bitrate=N/A speed=13.6x    frame= 3558 fps=328 q=-0.0 size=N/A time=00:02:28.39 bitrate=N/A speed=13.7x    frame= 3746 fps=330 q=-0.0 size=N/A time=00:02:36.23 bitrate=N/A speed=13.8x    frame= 3933 fps=332 q=-0.0 size=N/A time=00:02:44.03 bitrate=N/A speed=13.8x    frame= 4122 fps=333 q=-0.0 size=N/A time=00:02:51.92 bitrate=N/A speed=13.9x    frame= 4312 fps=334 q=-0.0 size=N/A time=00:02:59.84 bitrate=N/A speed=13.9x    frame= 4496 fps=335 q=-0.0 size=N/A time=00:03:07.52 bitrate=N/A speed=  14x    frame= 4695 fps=337 q=-0.0 size=N/A time=00:03:15.82 bitrate=N/A speed=14.1x    frame= 4881 fps=338 q=-0.0 size=N/A time=00:03:23.57 bitrate=N/A speed=14.1x    frame= 5071 fps=339 q=-0.0 size=N/A time=00:03:31.50 bitrate=N/A speed=14.1x    frame= 5252 fps=340 q=-0.0 size=N/A time=00:03:39.05 bitrate=N/A speed=14.2x    frame= 5447 fps=341 q=-0.0 size=N/A time=00:03:47.18 bitrate=N/A speed=14.2x    frame= 5637 fps=341 q=-0.0 size=N/A time=00:03:55.10 bitrate=N/A speed=14.2x    frame= 5822 fps=342 q=-0.0 size=N/A time=00:04:02.82 bitrate=N/A speed=14.3x    frame= 6011 fps=343 q=-0.0 size=N/A time=00:04:10.70 bitrate=N/A speed=14.3x    frame= 6190 fps=343 q=-0.0 size=N/A time=00:04:18.17 bitrate=N/A speed=14.3x    frame= 6380 fps=343 q=-0.0 size=N/A time=00:04:26.09 bitrate=N/A speed=14.3x    frame= 6570 fps=344 q=-0.0 size=N/A time=00:04:34.02 bitrate=N/A speed=14.3x    frame= 6753 fps=344 q=-0.0 size=N/A time=00:04:41.65 bitrate=N/A speed=14.4x    frame= 6945 fps=345 q=-0.0 size=N/A time=00:04:49.66 bitrate=N/A speed=14.4x    frame= 7133 fps=345 q=-0.0 size=N/A time=00:04:57.50 bitrate=N/A speed=14.4x    frame= 7316 fps=346 q=-0.0 size=N/A time=00:05:05.13 bitrate=N/A speed=14.4x    frame= 7499 fps=346 q=-0.0 size=N/A time=00:05:12.77 bitrate=N/A speed=14.4x    frame= 7676 fps=346 q=-0.0 size=N/A time=00:05:20.15 bitrate=N/A speed=14.4x    frame= 7865 fps=346 q=-0.0 size=N/A time=00:05:28.03 bitrate=N/A speed=14.4x    frame= 8049 fps=347 q=-0.0 size=N/A time=00:05:35.71 bitrate=N/A speed=14.5x    frame= 8230 fps=347 q=-0.0 size=N/A time=00:05:43.25 bitrate=N/A speed=14.5x    frame= 8417 fps=347 q=-0.0 size=N/A time=00:05:51.05 bitrate=N/A speed=14.5x    frame= 8612 fps=347 q=-0.0 size=N/A time=00:05:59.19 bitrate=N/A speed=14.5x    frame= 8797 fps=348 q=-0.0 size=N/A time=00:06:06.90 bitrate=N/A speed=14.5x    frame= 8980 fps=348 q=-0.0 size=N/A time=00:06:14.54 bitrate=N/A speed=14.5x    frame= 9173 fps=348 q=-0.0 size=N/A time=00:06:22.59 bitrate=N/A speed=14.5x    frame= 9356 fps=348 q=-0.0 size=N/A time=00:06:30.22 bitrate=N/A speed=14.5x    frame= 9542 fps=349 q=-0.0 size=N/A time=00:06:37.98 bitrate=N/A speed=14.5x    frame= 9734 fps=349 q=-0.0 size=N/A time=00:06:45.98 bitrate=N/A speed=14.6x    frame= 9925 fps=349 q=-0.0 size=N/A time=00:06:53.95 bitrate=N/A speed=14.6x    frame=10108 fps=349 q=-0.0 size=N/A time=00:07:01.58 bitrate=N/A speed=14.6x    frame=10290 fps=350 q=-0.0 size=N/A time=00:07:09.17 bitrate=N/A speed=14.6x    frame=10473 fps=350 q=-0.0 size=N/A time=00:07:16.81 bitrate=N/A speed=14.6x    frame=10663 fps=350 q=-0.0 size=N/A time=00:07:24.73 bitrate=N/A speed=14.6x    frame=10848 fps=350 q=-0.0 size=N/A time=00:07:32.45 bitrate=N/A speed=14.6x    frame=11030 fps=350 q=-0.0 size=N/A time=00:07:40.04 bitrate=N/A speed=14.6x    frame=11209 fps=350 q=-0.0 size=N/A time=00:07:47.50 bitrate=N/A speed=14.6x    frame=11402 fps=350 q=-0.0 size=N/A time=00:07:55.55 bitrate=N/A speed=14.6x    frame=11584 fps=350 q=-0.0 size=N/A time=00:08:03.14 bitrate=N/A speed=14.6x    frame=11767 fps=351 q=-0.0 size=N/A time=00:08:10.78 bitrate=N/A speed=14.6x    frame=11962 fps=351 q=-0.0 size=N/A time=00:08:18.91 bitrate=N/A speed=14.6x    frame=12147 fps=351 q=-0.0 size=N/A time=00:08:26.63 bitrate=N/A speed=14.6x    frame=12337 fps=351 q=-0.0 size=N/A time=00:08:34.55 bitrate=N/A speed=14.7x    frame=12525 fps=351 q=-0.0 size=N/A time=00:08:42.39 bitrate=N/A speed=14.7x    frame=12713 fps=352 q=-0.0 size=N/A time=00:08:50.23 bitrate=N/A speed=14.7x    frame=12904 fps=352 q=-0.0 size=N/A time=00:08:58.20 bitrate=N/A speed=14.7x    frame=13087 fps=352 q=-0.0 size=N/A time=00:09:05.83 bitrate=N/A speed=14.7x    frame=13270 fps=352 q=-0.0 size=N/A time=00:09:13.46 bitrate=N/A speed=14.7x    frame=13462 fps=352 q=-0.0 size=N/A time=00:09:21.47 bitrate=N/A speed=14.7x    frame=13647 fps=352 q=-0.0 size=N/A time=00:09:29.19 bitrate=N/A speed=14.7x    frame=13829 fps=352 q=-0.0 size=N/A time=00:09:36.78 bitrate=N/A speed=14.7x    frame=14021 fps=353 q=-0.0 size=N/A time=00:09:44.79 bitrate=N/A speed=14.7x    frame=14205 fps=353 q=-0.0 size=N/A time=00:09:52.46 bitrate=N/A speed=14.7x    frame=14390 fps=353 q=-0.0 size=N/A time=00:10:00.18 bitrate=N/A speed=14.7x    frame=14574 fps=353 q=-0.0 size=N/A time=00:10:07.85 bitrate=N/A speed=14.7x    frame=14760 fps=353 q=-0.0 size=N/A time=00:10:15.61 bitrate=N/A speed=14.7x    frame=14950 fps=353 q=-0.0 size=N/A time=00:10:23.53 bitrate=N/A speed=14.7x    frame=15126 fps=353 q=-0.0 size=N/A time=00:10:30.88 bitrate=N/A speed=14.7x    frame=15308 fps=353 q=-0.0 size=N/A time=00:10:38.47 bitrate=N/A speed=14.7x    frame=15498 fps=353 q=-0.0 size=N/A time=00:10:46.39 bitrate=N/A speed=14.7x    frame=15679 fps=353 q=-0.0 size=N/A time=00:10:53.94 bitrate=N/A speed=14.7x    frame=15863 fps=353 q=-0.0 size=N/A time=00:11:01.61 bitrate=N/A speed=14.7x    frame=16055 fps=353 q=-0.0 size=N/A time=00:11:09.62 bitrate=N/A speed=14.7x    frame=16243 fps=353 q=-0.0 size=N/A time=00:11:17.46 bitrate=N/A speed=14.7x    frame=16429 fps=353 q=-0.0 size=N/A time=00:11:25.22 bitrate=N/A speed=14.7x    frame=16615 fps=354 q=-0.0 size=N/A time=00:11:32.98 bitrate=N/A speed=14.7x    frame=16799 fps=354 q=-0.0 size=N/A time=00:11:40.65 bitrate=N/A speed=14.8x    frame=16990 fps=354 q=-0.0 size=N/A time=00:11:48.62 bitrate=N/A speed=14.8x    frame=17185 fps=354 q=-0.0 size=N/A time=00:11:56.75 bitrate=N/A speed=14.8x    frame=17371 fps=354 q=-0.0 size=N/A time=00:12:04.51 bitrate=N/A speed=14.8x    frame=17551 fps=354 q=-0.0 size=N/A time=00:12:12.02 bitrate=N/A speed=14.8x    frame=17739 fps=354 q=-0.0 size=N/A time=00:12:19.86 bitrate=N/A speed=14.8x    frame=17930 fps=354 q=-0.0 size=N/A time=00:12:27.83 bitrate=N/A speed=14.8x    frame=18114 fps=354 q=-0.0 size=N/A time=00:12:35.50 bitrate=N/A speed=14.8x    frame=18291 fps=354 q=-0.0 size=N/A time=00:12:42.88 bitrate=N/A speed=14.8x    frame=18475 fps=354 q=-0.0 size=N/A time=00:12:50.56 bitrate=N/A speed=14.8x    frame=18665 fps=354 q=-0.0 size=N/A time=00:12:58.48 bitrate=N/A speed=14.8x    frame=18851 fps=354 q=-0.0 size=N/A time=00:13:06.24 bitrate=N/A speed=14.8x    frame=19040 fps=354 q=-0.0 size=N/A time=00:13:14.12 bitrate=N/A speed=14.8x    frame=19233 fps=355 q=-0.0 size=N/A time=00:13:22.17 bitrate=N/A speed=14.8x    frame=19419 fps=355 q=-0.0 size=N/A time=00:13:29.93 bitrate=N/A speed=14.8x    frame=19595 fps=355 q=-0.0 size=N/A time=00:13:37.27 bitrate=N/A speed=14.8x    frame=19781 fps=355 q=-0.0 size=N/A time=00:13:45.03 bitrate=N/A speed=14.8x    frame=19961 fps=355 q=-0.0 size=N/A time=00:13:52.54 bitrate=N/A speed=14.8x    frame=20152 fps=355 q=-0.0 size=N/A time=00:14:00.50 bitrate=N/A speed=14.8x    frame=20333 fps=355 q=-0.0 size=N/A time=00:14:08.05 bitrate=N/A speed=14.8x    frame=20511 fps=355 q=-0.0 size=N/A time=00:14:15.47 bitrate=N/A speed=14.8x    frame=20700 fps=355 q=-0.0 size=N/A time=00:14:23.36 bitrate=N/A speed=14.8x    frame=20889 fps=355 q=-0.0 size=N/A time=00:14:31.24 bitrate=N/A speed=14.8x    frame=21070 fps=355 q=-0.0 size=N/A time=00:14:38.79 bitrate=N/A speed=14.8x    frame=21263 fps=355 q=-0.0 size=N/A time=00:14:46.84 bitrate=N/A speed=14.8x    frame=21451 fps=355 q=-0.0 size=N/A time=00:14:54.68 bitrate=N/A speed=14.8x    frame=21637 fps=355 q=-0.0 size=N/A time=00:15:02.44 bitrate=N/A speed=14.8x    frame=21821 fps=355 q=-0.0 size=N/A time=00:15:10.11 bitrate=N/A speed=14.8x    frame=22013 fps=355 q=-0.0 size=N/A time=00:15:18.12 bitrate=N/A speed=14.8x    frame=22197 fps=355 q=-0.0 size=N/A time=00:15:25.79 bitrate=N/A speed=14.8x    frame=22386 fps=355 q=-0.0 size=N/A time=00:15:33.68 bitrate=N/A speed=14.8x    frame=22574 fps=355 q=-0.0 size=N/A time=00:15:41.52 bitrate=N/A speed=14.8x    frame=22757 fps=355 q=-0.0 size=N/A time=00:15:49.15 bitrate=N/A speed=14.8x    frame=22942 fps=356 q=-0.0 size=N/A time=00:15:56.87 bitrate=N/A speed=14.8x    frame=23128 fps=356 q=-0.0 size=N/A time=00:16:04.63 bitrate=N/A speed=14.8x    frame=23319 fps=356 q=-0.0 size=N/A time=00:16:12.59 bitrate=N/A speed=14.8x    frame=23507 fps=356 q=-0.0 size=N/A time=00:16:20.43 bitrate=N/A speed=14.8x    frame=23694 fps=356 q=-0.0 size=N/A time=00:16:28.23 bitrate=N/A speed=14.8x    frame=23888 fps=356 q=-0.0 size=N/A time=00:16:36.32 bitrate=N/A speed=14.8x    frame=24072 fps=356 q=-0.0 size=N/A time=00:16:44.00 bitrate=N/A speed=14.8x    frame=24257 fps=356 q=-0.0 size=N/A time=00:16:51.71 bitrate=N/A speed=14.8x    frame=24441 fps=356 q=-0.0 size=N/A time=00:16:59.39 bitrate=N/A speed=14.8x    frame=24634 fps=356 q=-0.0 size=N/A time=00:17:07.44 bitrate=N/A speed=14.9x    frame=24820 fps=356 q=-0.0 size=N/A time=00:17:15.20 bitrate=N/A speed=14.9x    frame=25010 fps=356 q=-0.0 size=N/A time=00:17:23.12 bitrate=N/A speed=14.9x    frame=25195 fps=356 q=-0.0 size=N/A time=00:17:30.84 bitrate=N/A speed=14.9x    frame=25383 fps=356 q=-0.0 size=N/A time=00:17:38.68 bitrate=N/A speed=14.9x    frame=25572 fps=356 q=-0.0 size=N/A time=00:17:46.56 bitrate=N/A speed=14.9x    frame=25750 fps=356 q=-0.0 size=N/A time=00:17:53.98 bitrate=N/A speed=14.9x    frame=25943 fps=356 q=-0.0 size=N/A time=00:18:02.03 bitrate=N/A speed=14.9x    frame=26132 fps=356 q=-0.0 size=N/A time=00:18:09.92 bitrate=N/A speed=14.9x    frame=26319 fps=357 q=-0.0 size=N/A time=00:18:17.72 bitrate=N/A speed=14.9x    frame=26505 fps=357 q=-0.0 size=N/A time=00:18:25.47 bitrate=N/A speed=14.9x    frame=26694 fps=357 q=-0.0 size=N/A time=00:18:33.36 bitrate=N/A speed=14.9x    frame=26881 fps=357 q=-0.0 size=N/A time=00:18:41.16 bitrate=N/A speed=14.9x    frame=27059 fps=357 q=-0.0 size=N/A time=00:18:48.58 bitrate=N/A speed=14.9x    frame=27243 fps=357 q=-0.0 size=N/A time=00:18:56.26 bitrate=N/A speed=14.9x    frame=27425 fps=357 q=-0.0 size=N/A time=00:19:03.85 bitrate=N/A speed=14.9x    frame=27608 fps=357 q=-0.0 size=N/A time=00:19:11.48 bitrate=N/A speed=14.9x    frame=27790 fps=357 q=-0.0 size=N/A time=00:19:19.07 bitrate=N/A speed=14.9x    frame=27981 fps=357 q=-0.0 size=N/A time=00:19:27.04 bitrate=N/A speed=14.9x    frame=28167 fps=357 q=-0.0 size=N/A time=00:19:34.79 bitrate=N/A speed=14.9x    frame=28354 fps=357 q=-0.0 size=N/A time=00:19:42.59 bitrate=N/A speed=14.9x    frame=28534 fps=357 q=-0.0 size=N/A time=00:19:50.10 bitrate=N/A speed=14.9x    frame=28723 fps=357 q=-0.0 size=N/A time=00:19:57.98 bitrate=N/A speed=14.9x    frame=28903 fps=357 q=-0.0 size=N/A time=00:20:05.49 bitrate=N/A speed=14.9x    frame=29077 fps=357 q=-0.0 size=N/A time=00:20:12.75 bitrate=N/A speed=14.9x    frame=29254 fps=356 q=-0.0 size=N/A time=00:20:20.13 bitrate=N/A speed=14.9x    frame=29437 fps=356 q=-0.0 size=N/A time=00:20:27.76 bitrate=N/A speed=14.9x    frame=29608 fps=356 q=-0.0 size=N/A time=00:20:34.90 bitrate=N/A speed=14.9x    frame=29796 fps=356 q=-0.0 size=N/A time=00:20:42.74 bitrate=N/A speed=14.9x    frame=29977 fps=356 q=-0.0 size=N/A time=00:20:50.29 bitrate=N/A speed=14.9x    frame=30137 fps=356 q=-0.0 size=N/A time=00:20:56.96 bitrate=N/A speed=14.8x    frame=30317 fps=356 q=-0.0 size=N/A time=00:21:04.47 bitrate=N/A speed=14.8x    frame=30505 fps=356 q=-0.0 size=N/A time=00:21:12.31 bitrate=N/A speed=14.8x    frame=30694 fps=356 q=-0.0 size=N/A time=00:21:20.19 bitrate=N/A speed=14.8x    frame=30879 fps=356 q=-0.0 size=N/A time=00:21:27.91 bitrate=N/A speed=14.8x    frame=31075 fps=356 q=-0.0 size=N/A time=00:21:36.08 bitrate=N/A speed=14.9x    frame=31265 fps=356 q=-0.0 size=N/A time=00:21:44.01 bitrate=N/A speed=14.9x    frame=31440 fps=356 q=-0.0 size=N/A time=00:21:51.31 bitrate=N/A speed=14.9x    frame=31628 fps=356 q=-0.0 size=N/A time=00:21:59.15 bitrate=N/A speed=14.9x    frame=31813 fps=356 q=-0.0 size=N/A time=00:22:06.86 bitrate=N/A speed=14.9x    frame=31985 fps=356 q=-0.0 size=N/A time=00:22:14.04 bitrate=N/A speed=14.8x    frame=32171 fps=356 q=-0.0 size=N/A time=00:22:21.79 bitrate=N/A speed=14.9x    frame=32361 fps=356 q=-0.0 size=N/A time=00:22:29.72 bitrate=N/A speed=14.9x    frame=32548 fps=356 q=-0.0 size=N/A time=00:22:37.52 bitrate=N/A speed=14.9x    frame=32707 fps=356 q=-0.0 size=N/A time=00:22:44.15 bitrate=N/A speed=14.8x    frame=32868 fps=356 q=-0.0 size=N/A time=00:22:50.86 bitrate=N/A speed=14.8x    frame=33056 fps=356 q=-0.0 size=N/A time=00:22:58.71 bitrate=N/A speed=14.8x    frame=33237 fps=356 q=-0.0 size=N/A time=00:23:06.25 bitrate=N/A speed=14.8x    frame=33418 fps=356 q=-0.0 size=N/A time=00:23:13.80 bitrate=N/A speed=14.8x    frame=33578 fps=355 q=-0.0 size=N/A time=00:23:20.48 bitrate=N/A speed=14.8x    frame=33742 fps=355 q=-0.0 size=N/A time=00:23:27.32 bitrate=N/A speed=14.8x    frame=33868 fps=355 q=-0.0 size=N/A time=00:23:32.57 bitrate=N/A speed=14.8x    frame=34030 fps=354 q=-0.0 size=N/A time=00:23:39.33 bitrate=N/A speed=14.8x    frame=34205 fps=354 q=-0.0 size=N/A time=00:23:46.63 bitrate=N/A speed=14.8x    frame=34349 fps=354 q=-0.0 size=N/A time=00:23:52.63 bitrate=N/A speed=14.8x    frame=34497 fps=354 q=-0.0 size=N/A time=00:23:58.81 bitrate=N/A speed=14.7x    [Parsed_ssim_16 @ 0000021666537a00] SSIM Y:0.993856 (22.115433) U:0.993290 (21.732882) V:0.992966 (21.527744) All:0.993613 (21.947198)
[out#0/null @ 000002165892e740] video:14903KiB audio:271276KiB subtitle:0KiB other streams:0KiB global headers:0KiB muxing overhead: unknown
frame=34683 fps=354 q=-0.0 Lsize=N/A time=00:24:06.57 bitrate=N/A speed=14.7x    
